<svg width="265" height="311" viewBox="0 0 265 311" fill="none" xmlns="http://www.w3.org/2000/svg">
<path d="M17.4798 3.85844C18.6892 1.80582 20.8862 0.538303 23.267 0.516243C48.9404 0.287218 74.4782 8.51312 97.1207 24.3028C114.666 36.5381 130.404 53.3852 140.299 70.5253L155.224 96.3776L225.998 127.708C227.313 128.29 228.409 129.275 229.129 130.52L263.713 190.422C265.06 192.755 264.9 195.664 263.306 197.835C261.711 200.005 258.983 201.028 256.355 200.441L209.228 189.914L217.778 204.723C219.653 207.97 218.54 212.121 215.293 213.996L206.65 218.986L218.648 255.652C219.646 258.703 218.372 262.036 215.59 263.642L149.188 301.979C146.408 303.584 142.883 303.023 140.74 300.631L114.987 271.908L106.343 276.898C103.097 278.772 98.945 277.66 97.0699 274.413L88.52 259.605L74.0737 305.679C73.2679 308.249 71.0183 310.1 68.3411 310.395C67.4866 310.49 66.641 310.42 65.8413 310.205C64.1337 309.748 62.6359 308.63 61.7183 307.043L27.1342 247.141C26.4145 245.895 26.1104 244.453 26.2631 243.023L34.5166 166.067L19.5913 140.215C9.69567 123.075 2.97405 101.022 1.15027 79.7108C-1.20094 52.207 4.44483 25.9773 17.4798 3.85844ZM147.172 287.466L204.033 254.638L194.635 225.922L166.698 242.052L168.595 245.338C170.47 248.584 169.357 252.736 166.11 254.611C162.864 256.485 158.712 255.372 156.837 252.126L154.94 248.841L127.003 264.97L147.172 287.466ZM31.3505 133.427L47.3824 161.196C47.3845 161.2 47.3862 161.202 47.3882 161.206L64.07 190.1C65.9443 193.346 64.8318 197.498 61.5852 199.373C58.3388 201.247 54.1868 200.134 52.3117 196.888L46.0323 186.012L39.9988 242.27L65.7452 286.865L79.2995 243.633L65.8872 220.402C64.0128 217.156 65.1253 213.004 68.372 211.129C71.6183 209.255 75.7703 210.368 77.6454 213.614L92.5352 239.404C92.5435 239.418 92.551 239.431 92.5593 239.445L105.435 261.746L112.848 257.466C112.933 257.415 113.018 257.365 113.105 257.318L148.152 237.083L90.1002 136.533C88.2258 133.287 89.3377 129.135 92.585 127.26C95.8306 125.387 99.9822 126.498 101.858 129.745L159.91 230.295L194.958 210.06C195.042 210.01 195.127 209.961 195.213 209.913L202.627 205.632L189.751 183.331C189.743 183.317 189.735 183.304 189.728 183.29L174.838 157.5C172.963 154.254 174.075 150.102 177.323 148.227C180.568 146.353 184.721 147.465 186.596 150.711L200.008 173.942L244.225 183.819L218.479 139.224L166.741 116.321L173.02 127.196L161.263 133.985L144.632 105.179C144.595 105.118 144.559 105.056 144.525 104.994L128.543 77.3121C115.185 54.1784 79.1043 15.5354 27.2674 14.1273C2.56825 59.724 17.9934 110.293 31.3505 133.427Z" fill="#306BB1"/>
</svg>
