<svg width="179" height="59" viewBox="0 0 179 59" fill="none" xmlns="http://www.w3.org/2000/svg">
<path d="M75.104 21.7953C75.104 23.0967 74.8053 24.2913 74.208 25.3793C73.6107 26.446 72.6933 27.31 71.456 27.9713C70.2187 28.6327 68.6827 28.9633 66.848 28.9633H63.456V37.0273H57.984V14.5633H66.848C68.64 14.5633 70.1547 14.8727 71.392 15.4913C72.6293 16.11 73.5573 16.9633 74.176 18.0513C74.7947 19.1393 75.104 20.3873 75.104 21.7953ZM66.432 24.6113C67.4773 24.6113 68.256 24.366 68.768 23.8753C69.28 23.3847 69.536 22.6913 69.536 21.7953C69.536 20.8993 69.28 20.206 68.768 19.7153C68.256 19.2247 67.4773 18.9793 66.432 18.9793H63.456V24.6113H66.432ZM76.8648 28.0673C76.8648 26.2327 77.2061 24.622 77.8888 23.2353C78.5928 21.8487 79.5421 20.782 80.7368 20.0353C81.9314 19.2887 83.2648 18.9153 84.7368 18.9153C85.9954 18.9153 87.0941 19.1713 88.0328 19.6833C88.9928 20.1953 89.7288 20.8673 90.2408 21.6993V19.1713H95.7128V37.0273H90.2408V34.4993C89.7074 35.3313 88.9608 36.0033 88.0008 36.5153C87.0621 37.0273 85.9634 37.2833 84.7048 37.2833C83.2541 37.2833 81.9314 36.91 80.7368 36.1633C79.5421 35.3953 78.5928 34.318 77.8888 32.9313C77.2061 31.5233 76.8648 29.902 76.8648 28.0673ZM90.2408 28.0993C90.2408 26.734 89.8568 25.6567 89.0888 24.8673C88.3421 24.078 87.4248 23.6833 86.3368 23.6833C85.2488 23.6833 84.3208 24.078 83.5528 24.8673C82.8061 25.6353 82.4328 26.702 82.4328 28.0673C82.4328 29.4327 82.8061 30.5207 83.5528 31.3313C84.3208 32.1207 85.2488 32.5153 86.3368 32.5153C87.4248 32.5153 88.3421 32.1207 89.0888 31.3313C89.8568 30.542 90.2408 29.4647 90.2408 28.0993ZM102.424 17.3153C101.464 17.3153 100.674 17.038 100.056 16.4833C99.4582 15.9073 99.1595 15.2033 99.1595 14.3713C99.1595 13.518 99.4582 12.814 100.056 12.2593C100.674 11.6833 101.464 11.3953 102.424 11.3953C103.362 11.3953 104.13 11.6833 104.728 12.2593C105.346 12.814 105.656 13.518 105.656 14.3713C105.656 15.2033 105.346 15.9073 104.728 16.4833C104.13 17.038 103.362 17.3153 102.424 17.3153ZM105.144 19.1713V37.0273H99.6715V19.1713H105.144ZM108.021 28.0673C108.021 26.2327 108.362 24.622 109.045 23.2353C109.749 21.8487 110.698 20.782 111.893 20.0353C113.088 19.2887 114.421 18.9153 115.893 18.9153C117.066 18.9153 118.133 19.1607 119.093 19.6513C120.074 20.142 120.842 20.8033 121.397 21.6353V13.3473H126.869V37.0273H121.397V34.4673C120.885 35.3207 120.149 36.0033 119.189 36.5153C118.25 37.0273 117.152 37.2833 115.893 37.2833C114.421 37.2833 113.088 36.91 111.893 36.1633C110.698 35.3953 109.749 34.318 109.045 32.9313C108.362 31.5233 108.021 29.902 108.021 28.0673ZM121.397 28.0993C121.397 26.734 121.013 25.6567 120.245 24.8673C119.498 24.078 118.581 23.6833 117.493 23.6833C116.405 23.6833 115.477 24.078 114.709 24.8673C113.962 25.6353 113.589 26.702 113.589 28.0673C113.589 29.4327 113.962 30.5207 114.709 31.3313C115.477 32.1207 116.405 32.5153 117.493 32.5153C118.581 32.5153 119.498 32.1207 120.245 31.3313C121.013 30.542 121.397 29.4647 121.397 28.0993ZM136.3 13.3473V37.0273H130.828V13.3473H136.3ZM157.097 27.8113C157.097 28.3233 157.065 28.8567 157.001 29.4113H144.617C144.703 30.5207 145.055 31.374 145.673 31.9713C146.313 32.5473 147.092 32.8353 148.009 32.8353C149.375 32.8353 150.324 32.2593 150.857 31.1073H156.681C156.383 32.2807 155.839 33.3367 155.049 34.2753C154.281 35.214 153.311 35.95 152.137 36.4833C150.964 37.0167 149.652 37.2833 148.201 37.2833C146.452 37.2833 144.895 36.91 143.529 36.1633C142.164 35.4167 141.097 34.35 140.329 32.9633C139.561 31.5767 139.177 29.9553 139.177 28.0993C139.177 26.2433 139.551 24.622 140.297 23.2353C141.065 21.8487 142.132 20.782 143.497 20.0353C144.863 19.2887 146.431 18.9153 148.201 18.9153C149.929 18.9153 151.465 19.278 152.809 20.0033C154.153 20.7287 155.199 21.7633 155.945 23.1073C156.713 24.4513 157.097 26.0193 157.097 27.8113ZM151.497 26.3713C151.497 25.4327 151.177 24.686 150.537 24.1313C149.897 23.5767 149.097 23.2993 148.137 23.2993C147.22 23.2993 146.441 23.566 145.801 24.0993C145.183 24.6327 144.799 25.39 144.649 26.3713H151.497ZM178.224 19.1713L167.024 45.5073H161.136L165.232 36.4193L157.968 19.1713H164.08L168.208 30.3393L172.304 19.1713H178.224Z" fill="white"/>
<path d="M29.8378 15.4113V2.52714H46V30.4219C46 35.9447 41.5228 40.4219 36 40.4219H16.4108" stroke="white" stroke-width="5"/>
<path d="M23.2802 12.6328H0V50.5275H16.1622V40.1697H23.2802C30.8843 40.1697 37.0486 34.0053 37.0486 26.4012C37.0486 18.7971 30.8843 12.6328 23.2802 12.6328Z" fill="white"/>
</svg>
