<svg width="170" height="40" viewBox="0 0 179 51" fill="none" xmlns="http://www.w3.org/2000/svg">
<path d="M75.104 21.768C75.104 23.0693 74.8053 24.264 74.208 25.352C73.6107 26.4187 72.6933 27.2827 71.456 27.944C70.2187 28.6053 68.6827 28.936 66.848 28.936H63.456V37H57.984V14.536H66.848C68.64 14.536 70.1547 14.8453 71.392 15.464C72.6293 16.0827 73.5573 16.936 74.176 18.024C74.7947 19.112 75.104 20.36 75.104 21.768ZM66.432 24.584C67.4773 24.584 68.256 24.3387 68.768 23.848C69.28 23.3573 69.536 22.664 69.536 21.768C69.536 20.872 69.28 20.1787 68.768 19.688C68.256 19.1973 67.4773 18.952 66.432 18.952H63.456V24.584H66.432ZM76.8648 28.04C76.8648 26.2053 77.2061 24.5947 77.8888 23.208C78.5928 21.8213 79.5421 20.7547 80.7368 20.008C81.9314 19.2613 83.2648 18.888 84.7368 18.888C85.9954 18.888 87.0941 19.144 88.0328 19.656C88.9928 20.168 89.7288 20.84 90.2408 21.672V19.144H95.7128V37H90.2408V34.472C89.7074 35.304 88.9608 35.976 88.0008 36.488C87.0621 37 85.9634 37.256 84.7048 37.256C83.2541 37.256 81.9314 36.8827 80.7368 36.136C79.5421 35.368 78.5928 34.2907 77.8888 32.904C77.2061 31.496 76.8648 29.8747 76.8648 28.04ZM90.2408 28.072C90.2408 26.7067 89.8568 25.6293 89.0888 24.84C88.3421 24.0507 87.4248 23.656 86.3368 23.656C85.2488 23.656 84.3208 24.0507 83.5528 24.84C82.8061 25.608 82.4328 26.6747 82.4328 28.04C82.4328 29.4053 82.8061 30.4933 83.5528 31.304C84.3208 32.0933 85.2488 32.488 86.3368 32.488C87.4248 32.488 88.3421 32.0933 89.0888 31.304C89.8568 30.5147 90.2408 29.4373 90.2408 28.072ZM102.424 17.288C101.464 17.288 100.674 17.0107 100.056 16.456C99.4582 15.88 99.1595 15.176 99.1595 14.344C99.1595 13.4907 99.4582 12.7867 100.056 12.232C100.674 11.656 101.464 11.368 102.424 11.368C103.362 11.368 104.13 11.656 104.728 12.232C105.346 12.7867 105.656 13.4907 105.656 14.344C105.656 15.176 105.346 15.88 104.728 16.456C104.13 17.0107 103.362 17.288 102.424 17.288ZM105.144 19.144V37H99.6715V19.144H105.144ZM108.021 28.04C108.021 26.2053 108.362 24.5947 109.045 23.208C109.749 21.8213 110.698 20.7547 111.893 20.008C113.088 19.2613 114.421 18.888 115.893 18.888C117.066 18.888 118.133 19.1333 119.093 19.624C120.074 20.1147 120.842 20.776 121.397 21.608V13.32H126.869V37H121.397V34.44C120.885 35.2933 120.149 35.976 119.189 36.488C118.25 37 117.152 37.256 115.893 37.256C114.421 37.256 113.088 36.8827 111.893 36.136C110.698 35.368 109.749 34.2907 109.045 32.904C108.362 31.496 108.021 29.8747 108.021 28.04ZM121.397 28.072C121.397 26.7067 121.013 25.6293 120.245 24.84C119.498 24.0507 118.581 23.656 117.493 23.656C116.405 23.656 115.477 24.0507 114.709 24.84C113.962 25.608 113.589 26.6747 113.589 28.04C113.589 29.4053 113.962 30.4933 114.709 31.304C115.477 32.0933 116.405 32.488 117.493 32.488C118.581 32.488 119.498 32.0933 120.245 31.304C121.013 30.5147 121.397 29.4373 121.397 28.072ZM136.3 13.32V37H130.828V13.32H136.3ZM157.097 27.784C157.097 28.296 157.065 28.8293 157.001 29.384H144.617C144.703 30.4933 145.055 31.3467 145.673 31.944C146.313 32.52 147.092 32.808 148.009 32.808C149.375 32.808 150.324 32.232 150.857 31.08H156.681C156.383 32.2533 155.839 33.3093 155.049 34.248C154.281 35.1867 153.311 35.9227 152.137 36.456C150.964 36.9893 149.652 37.256 148.201 37.256C146.452 37.256 144.895 36.8827 143.529 36.136C142.164 35.3893 141.097 34.3227 140.329 32.936C139.561 31.5493 139.177 29.928 139.177 28.072C139.177 26.216 139.551 24.5947 140.297 23.208C141.065 21.8213 142.132 20.7547 143.497 20.008C144.863 19.2613 146.431 18.888 148.201 18.888C149.929 18.888 151.465 19.2507 152.809 19.976C154.153 20.7013 155.199 21.736 155.945 23.08C156.713 24.424 157.097 25.992 157.097 27.784ZM151.497 26.344C151.497 25.4053 151.177 24.6587 150.537 24.104C149.897 23.5493 149.097 23.272 148.137 23.272C147.22 23.272 146.441 23.5387 145.801 24.072C145.183 24.6053 144.799 25.3627 144.649 26.344H151.497ZM178.224 19.144L167.024 45.48H161.136L165.232 36.392L157.968 19.144H164.08L168.208 30.312L172.304 19.144H178.224Z" fill="#0582FA"/>
<path d="M29.8378 15.384V2.4998H46V30.3945C46 35.9174 41.5228 40.3945 36 40.3945H16.4108" stroke="#8DD8F7" stroke-width="5"/>
<path d="M23.2802 12.6055H0V50.5002H16.1622V40.1423H23.2802C30.8843 40.1423 37.0486 33.978 37.0486 26.3739C37.0486 18.7698 30.8843 12.6055 23.2802 12.6055Z" fill="#074DA2"/>
</svg>
