<svg width="368" height="368" viewBox="0 0 368 368" fill="none" xmlns="http://www.w3.org/2000/svg">
<g clip-path="url(#clip0_578_4366)">
<path d="M255.928 211.111L271.798 259.605L205.396 297.942L171.334 259.952L255.928 211.111Z" fill="#8DD8F7"/>
<path d="M101.104 166.433L210.053 103.531L282.85 135.757L317.435 195.659L255.219 181.761L146.27 244.663L127.198 305.492L92.614 245.59L101.104 166.433Z" fill="#8DD8F7"/>
<path d="M82.9271 9.1463C137.487 8.66044 177.764 47.6054 194.02 75.7613C198.877 84.174 271.5 209.96 271.5 209.96L162.55 272.862C162.55 272.862 96.8052 158.988 85.0712 138.664C68.8154 110.508 55.2265 56.1535 82.9271 9.1463Z" fill="#8DD8F7"/>
<path d="M119.855 109.542C106.473 105.957 98.5322 92.2024 102.118 78.821C105.703 65.4396 119.458 57.4984 132.839 61.084C146.221 64.6695 154.162 78.424 150.576 91.8054C146.991 105.187 133.236 113.128 119.855 109.542Z" fill="#306BB1"/>
<path d="M248.377 294.346C251.624 292.472 255.776 293.585 257.65 296.831L283.347 341.34C285.221 344.586 284.109 348.738 280.862 350.613C279.238 351.55 277.389 351.741 275.711 351.291C274.033 350.841 272.527 349.751 271.589 348.128L245.892 303.619C244.018 300.372 245.131 296.22 248.377 294.346Z" fill="#306BB1"/>
<path d="M272.112 288.481C270.238 285.235 271.35 281.083 274.597 279.208C277.843 277.334 281.995 278.446 283.87 281.692L302.189 313.423C304.063 316.67 302.951 320.822 299.704 322.697C298.081 323.633 296.231 323.824 294.553 323.375C292.875 322.925 291.368 321.835 290.431 320.212L272.112 288.481Z" fill="#306BB1"/>
<path d="M79.4798 9.85844C80.6892 7.80582 82.8862 6.5383 85.267 6.51624C110.94 6.28722 136.478 14.5131 159.121 30.3028C176.666 42.5381 192.404 59.3852 202.299 76.5253L217.224 102.378L287.998 133.708C289.313 134.29 290.409 135.275 291.129 136.52L325.713 196.422C327.06 198.755 326.9 201.664 325.306 203.835C323.711 206.005 320.983 207.028 318.355 206.441L271.228 195.914L279.778 210.723C281.653 213.97 280.54 218.121 277.293 219.996L268.65 224.986L280.648 261.652C281.646 264.703 280.372 268.036 277.59 269.642L211.188 307.979C208.408 309.584 204.883 309.023 202.74 306.631L176.987 277.908L168.343 282.898C165.097 284.772 160.945 283.66 159.07 280.413L150.52 265.605L136.074 311.679C135.268 314.249 133.018 316.1 130.341 316.395C129.487 316.49 128.641 316.42 127.841 316.205C126.134 315.748 124.636 314.63 123.718 313.043L89.1342 253.141C88.4145 251.895 88.1104 250.453 88.2631 249.023L96.5166 172.067L81.5913 146.215C71.6957 129.075 64.9741 107.022 63.1503 85.7108C60.7991 58.207 66.4448 31.9773 79.4798 9.85844ZM209.172 293.466L266.033 260.638L256.635 231.922L228.698 248.052L230.595 251.338C232.47 254.584 231.357 258.736 228.11 260.611C224.864 262.485 220.712 261.372 218.837 258.126L216.94 254.841L189.003 270.97L209.172 293.466ZM93.3505 139.427L109.382 167.196C109.385 167.2 109.386 167.202 109.388 167.206L126.07 196.1C127.944 199.346 126.832 203.498 123.585 205.373C120.339 207.247 116.187 206.134 114.312 202.888L108.032 192.012L101.999 248.27L127.745 292.865L141.3 249.633L127.887 226.402C126.013 223.156 127.125 219.004 130.372 217.129C133.618 215.255 137.77 216.368 139.645 219.614L154.535 245.404C154.544 245.418 154.551 245.431 154.559 245.445L167.435 267.746L174.848 263.466C174.933 263.415 175.018 263.365 175.105 263.318L210.152 243.083L152.1 142.533C150.226 139.287 151.338 135.135 154.585 133.26C157.831 131.387 161.982 132.498 163.858 135.745L221.91 236.295L256.958 216.06C257.042 216.01 257.127 215.961 257.213 215.913L264.627 211.632L251.751 189.331C251.743 189.317 251.735 189.304 251.728 189.29L236.838 163.5C234.963 160.254 236.075 156.102 239.323 154.227C242.568 152.353 246.721 153.465 248.596 156.711L262.008 179.942L306.225 189.819L280.479 145.224L228.741 122.321L235.02 133.196L223.263 139.985L206.632 111.179C206.595 111.118 206.559 111.056 206.525 110.994L190.543 83.3121C177.185 60.1784 141.104 21.5354 89.2674 20.1273C64.5682 65.724 79.9934 116.293 93.3505 139.427Z" fill="#306BB1"/>
<path d="M230.246 312.653L248.566 344.383C250.44 347.629 249.328 351.781 246.081 353.656C244.457 354.593 242.608 354.784 240.93 354.334C239.252 353.885 237.745 352.794 236.808 351.172L218.489 319.441C216.614 316.195 217.727 312.043 220.973 310.168C224.219 308.293 228.371 309.406 230.246 312.653Z" fill="#306BB1"/>
<path d="M154.127 68.7229C158.384 76.0964 159.515 84.6856 157.311 92.9086C155.108 101.132 149.834 108.005 142.461 112.262C134.851 116.655 126.164 117.543 118.28 115.431C110.396 113.318 103.316 108.206 98.9233 100.596C94.666 93.223 93.5358 84.634 95.7393 76.4104C97.9427 68.1874 103.217 61.3143 110.59 57.057C125.809 48.2701 145.339 53.5033 154.127 68.7229ZM110.681 93.8072C115.725 102.545 126.936 105.549 135.674 100.504C139.906 98.0604 142.933 94.1156 144.198 89.3942C145.463 84.674 144.814 79.7431 142.371 75.5107C139.848 71.1418 135.785 68.2071 131.259 66.9944C126.734 65.7819 121.745 66.2924 117.378 68.814C113.145 71.2576 110.118 75.2028 108.853 79.9236C107.587 84.6453 108.237 89.5747 110.681 93.8072Z" fill="#306BB1"/>
</g>
<defs>
<clipPath id="clip0_578_4366">
<rect width="300" height="300" fill="white" transform="matrix(-0.965926 -0.258819 -0.258819 0.965926 367.424 77.6455)"/>
</clipPath>
</defs>
</svg>
